<?xml version="1.0" encoding="UTF-8"?>
<svg width="381px" height="166px" viewBox="0 0 381 166" version="1.1" xmlns="http://www.w3.org/2000/svg" xmlns:xlink="http://www.w3.org/1999/xlink">
    <title>Eco-score E</title>
    <g id="Page-1" stroke="none" stroke-width="1" fill="none" fill-rule="evenodd">
        <g id="Logos-font-vectorized" transform="translate(-107.000000, -1211.000000)" fill-rule="nonzero">
            <g id="Eco-score-E" transform="translate(62.000000, 1164.000000)">
                <g id="E">
                    <path d="M125.226988,18.2344876 C127.126988,15.9844876 130.971988,15.9844876 132.871988,18.2344876 C135.571988,21.4444876 199.046988,92.2794876 199.046988,135.259488 C199.046988,176.454488 169.941988,195.889488 142.701988,200.344488 C142.369397,200.398869 141.982862,200.449622 141.549538,200.496751 L141.546988,229.046988 C141.546988,235.950547 135.950547,241.546988 129.046988,241.546988 C122.143428,241.546988 116.546988,235.950547 116.546988,229.046988 L116.545449,200.496055 C116.111715,200.449104 115.724837,200.39858 115.391988,200.344488 C88.1519876,195.889488 59.0469876,176.454488 59.0469876,135.259488 C59.0469876,92.2794876 122.521988,21.4444876 125.226988,18.2344876 Z" id="Leaf" fill="#E62D19" transform="translate(129.046988, 129.046988) rotate(45.000000) translate(-129.046988, -129.046988) "></path>
                    <path d="M151.066406,161 C155.119141,161 157.755859,158.705078 157.755859,154.896484 C157.755859,151.087891 155.070312,148.792969 151.066406,148.792969 L124.943359,148.792969 L124.943359,131.019531 L149.796875,131.019531 C153.507812,131.019531 155.949219,128.871094 155.949219,125.355469 C155.949219,121.839844 153.458984,119.691406 149.796875,119.691406 L124.943359,119.691406 L124.943359,102.748047 L151.066406,102.748047 C155.070312,102.748047 157.755859,100.453125 157.755859,96.6445312 C157.755859,92.8359375 155.119141,90.5410156 151.066406,90.5410156 L117.570312,90.5410156 C112.931641,90.5410156 110.197266,93.3730469 110.197266,98.2070312 L110.197266,153.285156 C110.197266,158.167969 112.931641,161 117.570312,161 L151.066406,161 Z" fill="#FFFFFF"></path>
                </g>
                <path d="M269.35,62.8 C270.046667,62.8 270.648333,62.6733333 271.155,62.42 L271.155,62.42 L281.51,57.29 C282.776667,56.6566667 283.726667,55.8966667 284.36,55.01 C284.993333,54.1233333 285.31,53.205 285.31,52.255 C285.31,50.8616667 284.7875,49.6425 283.7425,48.5975 C282.6975,47.5525 281.478333,47.03 280.085,47.03 C278.438333,47.03 276.886667,47.7583333 275.43,49.215 L275.43,49.215 L267.26,57.29 C266.436667,58.1133333 266.025,58.9366667 266.025,59.76 C266.025,60.5833333 266.3575,61.2958333 267.0225,61.8975 C267.6875,62.4991667 268.463333,62.8 269.35,62.8 Z M285.215,135 C289.901667,135 292.245,133.1 292.245,129.3 C292.245,125.436667 289.901667,123.505 285.215,123.505 L285.215,123.505 L259.09,123.505 L259.09,106.69 L283.315,106.69 C288.001667,106.69 290.345,104.79 290.345,100.99 C290.345,97.1266667 288.001667,95.195 283.315,95.195 L283.315,95.195 L259.09,95.195 L259.09,79.52 L285.215,79.52 C289.901667,79.52 292.245,77.5883333 292.245,73.725 C292.245,69.925 289.901667,68.025 285.215,68.025 L285.215,68.025 L251.585,68.025 C249.368333,68.025 247.658333,68.6266667 246.455,69.83 C245.251667,71.0333333 244.65,72.7433333 244.65,74.96 L244.65,74.96 L244.65,128.065 C244.65,130.281667 245.251667,131.991667 246.455,133.195 C247.658333,134.398333 249.368333,135 251.585,135 L251.585,135 L285.215,135 Z M330.245,135.855 C338.541667,135.855 345.698333,133.575 351.715,129.015 C352.601667,128.318333 353.250833,127.574167 353.6625,126.7825 C354.074167,125.990833 354.28,125.025 354.28,123.885 C354.28,122.238333 353.820833,120.829167 352.9025,119.6575 C351.984167,118.485833 350.86,117.9 349.53,117.9 C348.706667,117.9 347.978333,118.010833 347.345,118.2325 C346.711667,118.454167 345.92,118.85 344.97,119.42 C342.183333,121.066667 339.745,122.254167 337.655,122.9825 C335.565,123.710833 333.348333,124.075 331.005,124.075 C318.781667,124.075 312.67,116.538333 312.67,101.465 C312.67,93.9916667 314.205833,88.3708333 317.2775,84.6025 C320.349167,80.8341667 324.925,78.95 331.005,78.95 C333.475,78.95 335.786667,79.3141667 337.94,80.0425 C340.093333,80.7708333 342.436667,81.9583333 344.97,83.605 C345.793333,84.175 346.5375,84.5708333 347.2025,84.7925 C347.8675,85.0141667 348.643333,85.125 349.53,85.125 C350.86,85.125 351.984167,84.5391667 352.9025,83.3675 C353.820833,82.1958333 354.28,80.7866667 354.28,79.14 C354.28,78 354.09,77.05 353.71,76.29 C353.33,75.53 352.665,74.77 351.715,74.01 C345.698333,69.45 338.541667,67.17 330.245,67.17 C323.658333,67.17 317.895,68.5633333 312.955,71.35 C308.015,74.1366667 304.215,78.1108333 301.555,83.2725 C298.895,88.4341667 297.565,94.4983333 297.565,101.465 C297.565,108.431667 298.895,114.511667 301.555,119.705 C304.215,124.898333 308.015,128.888333 312.955,131.675 C317.895,134.461667 323.658333,135.855 330.245,135.855 Z M391.71,135.855 C398.36,135.855 404.139167,134.445833 409.0475,131.6275 C413.955833,128.809167 417.74,124.819167 420.4,119.6575 C423.06,114.495833 424.39,108.431667 424.39,101.465 C424.39,94.4983333 423.06,88.4341667 420.4,83.2725 C417.74,78.1108333 413.955833,74.1366667 409.0475,71.35 C404.139167,68.5633333 398.36,67.17 391.71,67.17 C385.06,67.17 379.280833,68.5633333 374.3725,71.35 C369.464167,74.1366667 365.68,78.1108333 363.02,83.2725 C360.36,88.4341667 359.03,94.4983333 359.03,101.465 C359.03,108.431667 360.36,114.495833 363.02,119.6575 C365.68,124.819167 369.464167,128.809167 374.3725,131.6275 C379.280833,134.445833 385.06,135.855 391.71,135.855 Z M391.71,124.36 C386.136667,124.36 381.766667,122.396667 378.6,118.47 C375.433333,114.543333 373.85,108.875 373.85,101.465 C373.85,94.055 375.4175,88.4025 378.5525,84.5075 C381.6875,80.6125 386.073333,78.665 391.71,78.665 C397.346667,78.665 401.748333,80.6125 404.915,84.5075 C408.081667,88.4025 409.665,94.055 409.665,101.465 C409.665,108.875 408.065833,114.543333 404.8675,118.47 C401.669167,122.396667 397.283333,124.36 391.71,124.36 Z M256.424,200.504 C259.709333,200.504 262.593333,199.990667 265.076,198.964 C267.558667,197.937333 269.490667,196.481333 270.872,194.596 C272.253333,192.710667 272.944,190.536 272.944,188.072 C272.944,186.093333 272.514667,184.376 271.656,182.92 C270.797333,181.464 269.341333,180.185333 267.288,179.084 C265.234667,177.982667 262.416,177.04 258.832,176.256 C256.629333,175.808 254.968,175.369333 253.848,174.94 C252.728,174.510667 251.962667,174.072 251.552,173.624 C251.141333,173.176 250.936,172.597333 250.936,171.888 C250.936,170.693333 251.514667,169.732 252.672,169.004 C253.829333,168.276 255.36,167.912 257.264,167.912 C258.645333,167.912 259.924,168.052 261.1,168.332 C262.276,168.612 263.302667,168.985333 264.18,169.452 C265.057333,169.918667 265.589333,170.208 265.776,170.32 C266.522667,170.768 267.101333,171.057333 267.512,171.188 C267.922667,171.318667 268.370667,171.384 268.856,171.384 C269.752,171.384 270.526667,170.973333 271.18,170.152 C271.833333,169.330667 272.16,168.36 272.16,167.24 C272.16,166.456 272.02,165.793333 271.74,165.252 C271.46,164.710667 270.984,164.197333 270.312,163.712 C268.557333,162.442667 266.616,161.509333 264.488,160.912 C262.36,160.314667 259.933333,160.016 257.208,160.016 C254.109333,160.016 251.318667,160.566667 248.836,161.668 C246.353333,162.769333 244.402667,164.290667 242.984,166.232 C241.565333,168.173333 240.856,170.338667 240.856,172.728 C240.856,174.818667 241.276,176.601333 242.116,178.076 C242.956,179.550667 244.421333,180.829333 246.512,181.912 C248.602667,182.994667 251.496,183.928 255.192,184.712 C258.178667,185.309333 260.204,185.916 261.268,186.532 C262.332,187.148 262.864,187.885333 262.864,188.744 C262.864,190.013333 262.294667,190.974667 261.156,191.628 C260.017333,192.281333 258.346667,192.608 256.144,192.608 C254.24,192.608 252.532,192.421333 251.02,192.048 C249.508,191.674667 247.986667,191.058667 246.456,190.2 C245.784,189.789333 245.224,189.509333 244.776,189.36 C244.328,189.210667 243.861333,189.136 243.376,189.136 C242.48,189.136 241.696,189.546667 241.024,190.368 C240.352,191.189333 240.016,192.16 240.016,193.28 C240.016,194.101333 240.156,194.773333 240.436,195.296 C240.716,195.818667 241.173333,196.322667 241.808,196.808 C243.450667,197.965333 245.550667,198.870667 248.108,199.524 C250.665333,200.177333 253.437333,200.504 256.424,200.504 Z M296.576,200.504 C301.317333,200.504 305.48,199.253333 309.064,196.752 C309.698667,196.304 310.156,195.809333 310.436,195.268 C310.716,194.726667 310.856,194.064 310.856,193.28 C310.856,192.122667 310.529333,191.142667 309.876,190.34 C309.222667,189.537333 308.429333,189.136 307.496,189.136 C306.973333,189.136 306.525333,189.210667 306.152,189.36 C305.778667,189.509333 305.2,189.789333 304.416,190.2 C302.773333,190.946667 301.429333,191.497333 300.384,191.852 C299.338667,192.206667 298.256,192.384 297.136,192.384 C293.813333,192.384 291.34,191.385333 289.716,189.388 C288.092,187.390667 287.28,184.338667 287.28,180.232 C287.28,176.162667 288.092,173.129333 289.716,171.132 C291.34,169.134667 293.813333,168.136 297.136,168.136 C298.368,168.136 299.562667,168.304 300.72,168.64 C301.877333,168.976 303.109333,169.536 304.416,170.32 C305.013333,170.693333 305.536,170.964 305.984,171.132 C306.432,171.3 306.936,171.384 307.496,171.384 C308.429333,171.384 309.222667,170.982667 309.876,170.18 C310.529333,169.377333 310.856,168.397333 310.856,167.24 C310.856,166.418667 310.716,165.746667 310.436,165.224 C310.156,164.701333 309.698667,164.216 309.064,163.768 C305.48,161.266667 301.317333,160.016 296.576,160.016 C292.618667,160.016 289.156,160.837333 286.188,162.48 C283.22,164.122667 280.924,166.474667 279.3,169.536 C277.676,172.597333 276.864,176.162667 276.864,180.232 C276.864,184.338667 277.676,187.922667 279.3,190.984 C280.924,194.045333 283.22,196.397333 286.188,198.04 C289.156,199.682667 292.618667,200.504 296.576,200.504 Z M332.808,200.504 C336.802667,200.504 340.284,199.673333 343.252,198.012 C346.22,196.350667 348.506667,193.998667 350.112,190.956 C351.717333,187.913333 352.52,184.338667 352.52,180.232 C352.52,176.125333 351.726667,172.550667 350.14,169.508 C348.553333,166.465333 346.276,164.122667 343.308,162.48 C340.34,160.837333 336.84,160.016 332.808,160.016 C328.776,160.016 325.276,160.837333 322.308,162.48 C319.34,164.122667 317.053333,166.465333 315.448,169.508 C313.842667,172.550667 313.04,176.125333 313.04,180.232 C313.04,184.338667 313.842667,187.913333 315.448,190.956 C317.053333,193.998667 319.34,196.350667 322.308,198.012 C325.276,199.673333 328.776,200.504 332.808,200.504 Z M332.808,192.608 C329.821333,192.608 327.488,191.562667 325.808,189.472 C324.128,187.381333 323.288,184.301333 323.288,180.232 C323.288,176.162667 324.128,173.092 325.808,171.02 C327.488,168.948 329.821333,167.912 332.808,167.912 C335.757333,167.912 338.081333,168.957333 339.78,171.048 C341.478667,173.138667 342.328,176.2 342.328,180.232 C342.328,184.264 341.488,187.334667 339.808,189.444 C338.128,191.553333 335.794667,192.608 332.808,192.608 Z M387.016,200.504 C388.322667,200.504 389.470667,200.102667 390.46,199.3 C391.449333,198.497333 391.944,197.498667 391.944,196.304 C391.944,195.408 391.608,194.456 390.936,193.448 L390.936,193.448 L387.464,188.464 C386.568,187.194667 385.662667,186.242667 384.748,185.608 C383.833333,184.973333 382.76,184.562667 381.528,184.376 C384.514667,183.666667 386.829333,182.276 388.472,180.204 C390.114667,178.132 390.936,175.602667 390.936,172.616 C390.936,168.696 389.732,165.7 387.324,163.628 C384.916,161.556 381.322667,160.52 376.544,160.52 L376.544,160.52 L362.488,160.52 C360.957333,160.52 359.781333,160.930667 358.96,161.752 C358.138667,162.573333 357.728,163.749333 357.728,165.28 L357.728,165.28 L357.728,195.24 C357.728,196.808 358.185333,198.049333 359.1,198.964 C360.014667,199.878667 361.256,200.336 362.824,200.336 C364.392,200.336 365.624,199.878667 366.52,198.964 C367.416,198.049333 367.864,196.808 367.864,195.24 L367.864,195.24 L367.864,185.216 L371.504,185.216 C372.288,185.216 372.969333,185.393333 373.548,185.748 C374.126667,186.102667 374.677333,186.653333 375.2,187.4 L375.2,187.4 L382.48,198.04 C383.04,198.861333 383.712,199.477333 384.496,199.888 C385.28,200.298667 386.12,200.504 387.016,200.504 Z M374.92,177.488 L367.752,177.488 L367.752,168.304 L374.92,168.304 C377.197333,168.304 378.830667,168.668 379.82,169.396 C380.809333,170.124 381.304,171.309333 381.304,172.952 C381.304,174.557333 380.809333,175.714667 379.82,176.424 C378.830667,177.133333 377.197333,177.488 374.92,177.488 L374.92,177.488 Z M420.56,200 C422.165333,200 423.378667,199.664 424.2,198.992 C425.021333,198.32 425.432,197.349333 425.432,196.08 C425.432,193.392 423.808,192.048 420.56,192.048 L420.56,192.048 L406.448,192.048 L406.448,183.872 L419.44,183.872 C421.045333,183.872 422.258667,183.536 423.08,182.864 C423.901333,182.192 424.312,181.221333 424.312,179.952 C424.312,177.301333 422.688,175.976 419.44,175.976 L419.44,175.976 L406.448,175.976 L406.448,168.472 L420.56,168.472 C423.808,168.472 425.432,167.128 425.432,164.44 C425.432,163.170667 425.021333,162.2 424.2,161.528 C423.378667,160.856 422.165333,160.52 420.56,160.52 L420.56,160.52 L401.184,160.52 C399.653333,160.52 398.477333,160.930667 397.656,161.752 C396.834667,162.573333 396.424,163.749333 396.424,165.28 L396.424,165.28 L396.424,195.24 C396.424,196.770667 396.834667,197.946667 397.656,198.768 C398.477333,199.589333 399.653333,200 401.184,200 L401.184,200 L420.56,200 Z" id="Title" fill="#4A4A4A"></path>
            </g>
        </g>
    </g>
</svg>